<?xml version="1.0" encoding="UTF-8" standalone="no"?>
<svg
   width="128"
   height="128"
   version="1.1"
   id="svg6"
   sodipodi:docname="icon.svg"
   inkscape:version="1.3 (0e150ed6c4, 2023-07-21)"
   xmlns:inkscape="http://www.inkscape.org/namespaces/inkscape"
   xmlns:sodipodi="http://sodipodi.sourceforge.net/DTD/sodipodi-0.dtd"
   xmlns="http://www.w3.org/2000/svg"
   xmlns:svg="http://www.w3.org/2000/svg">
  <defs
     id="defs6" />
  <sodipodi:namedview
     id="namedview6"
     pagecolor="#505050"
     bordercolor="#ffffff"
     borderopacity="1"
     inkscape:showpageshadow="0"
     inkscape:pageopacity="0"
     inkscape:pagecheckerboard="1"
     inkscape:deskcolor="#d1d1d1"
     inkscape:zoom="3.2148438"
     inkscape:cx="56.301337"
     inkscape:cy="71.543135"
     inkscape:window-width="1350"
     inkscape:window-height="1032"
     inkscape:window-x="4012"
     inkscape:window-y="123"
     inkscape:window-maximized="0"
     inkscape:current-layer="svg6" />
  <rect
     width="124"
     height="124"
     x="2"
     y="2"
     fill="#363d52"
     stroke="#212532"
     stroke-width="4"
     rx="14"
     id="rect1" />
  <g
     fill="#fff"
     transform="translate(12.322 12.322)scale(.101)"
     id="g4">
    <path
       d="M105 673v33q407 354 814 0v-33z"
       id="path1" />
    <path
       fill="#478cbf"
       d="m105 673 152 14q12 1 15 14l4 67 132 10 8-61q2-11 15-15h162q13 4 15 15l8 61 132-10 4-67q3-13 15-14l152-14V427q30-39 56-81-35-59-83-108-43 20-82 47-40-37-88-64 7-51 8-102-59-28-123-42-26 43-46 89-49-7-98 0-20-46-46-89-64 14-123 42 1 51 8 102-48 27-88 64-39-27-82-47-48 49-83 108 26 42 56 81zm0 33v39c0 276 813 276 814 0v-39l-134 12-5 69q-2 10-14 13l-162 11q-12 0-16-11l-10-65H446l-10 65q-4 11-16 11l-162-11q-12-3-14-13l-5-69z"
       id="path2" />
    <path
       d="M483 600c0 34 58 34 58 0v-86c0-34-58-34-58 0z"
       id="path3" />
    <circle
       cx="725"
       cy="526"
       r="90"
       id="circle3" />
    <circle
       cx="299"
       cy="526"
       r="90"
       id="circle4" />
  </g>
  <g
     fill="#414042"
     transform="translate(12.322 12.322)scale(.101)"
     id="g6">
    <circle
       cx="307"
       cy="532"
       r="60"
       id="circle5" />
    <circle
       cx="717"
       cy="532"
       r="60"
       id="circle6" />
  </g>
  <path
     fill="#eaeaea"
     d="M 22.62125,116.48909 H 21.422623 V 97.311055 h -7.19176 v 23.972535 h 15.582148 v -8.39038 H 22.62125 Z m 8.390388,4.7945 H 46.593786 V 97.311055 H 31.011638 Z m 7.191761,-19.17802 h 1.198626 v 14.38352 h -1.198626 z m 17.979402,4.7945 v -4.7945 h 1.198626 v 3.59588 h 5.993134 V 97.311055 H 47.792413 v 14.383525 h 8.390388 v 4.79451 h -1.198627 v -3.59588 h -7.191761 v 8.39038 h 15.582148 v -14.38352 z m 8.390387,14.38352 h 7.191761 v -5.99313 h 8.390388 V 97.311055 H 64.573188 Z m 7.191761,-19.17802 h 1.198627 v 8.39038 h -1.198627 z m 9.589014,19.17802 h 15.582144 v -8.39038 h -7.191756 v 3.59588 h -1.198627 v -4.79451 h 8.390383 v -4.79451 h -8.390383 v -4.7945 h 1.198627 v 3.59588 h 7.191756 V 97.311055 H 81.353963 Z M 113.71689,106.90007 V 97.311055 H 98.134737 v 23.972535 h 15.582153 v -8.39038 h -7.19176 v 3.59588 h -1.19863 v -14.38352 h 1.19863 v 4.7945 z"
     class="a"
     id="path1-7"
     style="stroke-width:1" />
</svg>
